<?xml version="1.0" standalone="no"?>
<!DOCTYPE svg PUBLIC "-//W3C//DTD SVG 1.1//EN" "http://www.w3.org/Graphics/SVG/1.1/DTD/svg11.dtd" >
<svg xmlns="http://www.w3.org/2000/svg">
<metadata>
Created by FontForge 20120731 at Wed Jun 28 16:56:11 2017
 By admin
</metadata>
<defs>
<font id="iconfont" horiz-adv-x="1024" >
  <font-face 
    font-family="iconfont"
    font-weight="500"
    font-stretch="normal"
    units-per-em="1024"
    panose-1="2 0 6 3 0 0 0 0 0 0"
    ascent="896"
    descent="-128"
    x-height="792"
    bbox="-533 -212 4351 896"
    underline-thickness="0"
    underline-position="0"
    unicode-range="U+0078-E7C0"
  />
<missing-glyph 
 />
    <glyph glyph-name=".notdef" 
 />
    <glyph glyph-name=".notdef" 
 />
    <glyph glyph-name=".null" horiz-adv-x="0" 
 />
    <glyph glyph-name="nonmarkingreturn" horiz-adv-x="341" 
 />
    <glyph glyph-name="x" unicode="x" horiz-adv-x="1001" 
d="M281 543q-27 -1 -53 -1h-83q-18 0 -36.5 -6t-32.5 -18.5t-23 -32t-9 -45.5v-76h912v41q0 16 -0.5 30t-0.5 18q0 13 -5 29t-17 29.5t-31.5 22.5t-49.5 9h-133v-97h-438v97zM955 310v-52q0 -23 0.5 -52t0.5 -58t-10.5 -47.5t-26 -30t-33 -16t-31.5 -4.5q-14 -1 -29.5 -0.5
t-29.5 0.5h-32l-45 128h-439l-44 -128h-29h-34q-20 0 -45 1q-25 0 -41 9.5t-25.5 23t-13.5 29.5t-4 30v167h911zM163 247q-12 0 -21 -8.5t-9 -21.5t9 -21.5t21 -8.5q13 0 22 8.5t9 21.5t-9 21.5t-22 8.5zM316 123q-8 -26 -14 -48q-5 -19 -10.5 -37t-7.5 -25t-3 -15t1 -14.5
t9.5 -10.5t21.5 -4h37h67h81h80h64h36q23 0 34 12t2 38q-5 13 -9.5 30.5t-9.5 34.5q-5 19 -11 39h-368zM336 498v228q0 11 2.5 23t10 21.5t20.5 15.5t34 6h188q31 0 51.5 -14.5t20.5 -52.5v-227h-327z" />
    <glyph glyph-name="search" unicode="&#xe600;" horiz-adv-x="1000" 
d="M173 641q43 49 103 78.5t126 33.5q61 5 121 -13t108 -56q59 -45 94 -112t37 -140q4 -64 -17.5 -125.5t-63.5 -110.5q37 -36 124.5 -123.5l134.5 -134.5q-9 -9 -27.5 -28t-28.5 -28q-26 25 -118.5 117.5t-142.5 143.5q-54 -40 -121 -55.5t-133 -3.5q-65 10 -122.5 46
t-95.5 89q-50 69 -60 152q-11 73 11 144.5t71 125.5zM392 713q-31 -5 -41 -8q-64 -16 -116.5 -60t-80.5 -104q-31 -68 -26 -144q4 -72 42.5 -135t99.5 -100q63 -39 140.5 -43t144.5 29q64 31 108 89.5t56 128.5q11 66 -7 129q-18 68 -67 121.5t-114 78.5t-139 18z" />
    <glyph glyph-name="weixin" unicode="&#xe633;" 
d="M579 385q-9 0 -16 -7t-7 -17q0 -8 7 -14.5t16 -6.5q12 0 20.5 6.5t8.5 14.5q0 10 -8 17t-21 7zM502.5 497q13.5 0 21.5 8t8 21t-8 21t-21.5 8t-23.5 -8t-10 -21t10 -21t23.5 -8zM512 892q-103 0 -197 -40.5t-162 -108t-108 -161.5t-40 -197t40 -197t108 -162t162 -108
t197 -40t197 40t161.5 108t108 162t40.5 197t-40.5 197t-108 161.5t-161.5 108t-197 40.5zM416 257q-35 0 -82 13l-83 -42l24 71q-93 65 -93 157q0 83 68.5 140.5t165.5 57.5q86 0 153.5 -46.5t81.5 -117.5q-12 3 -22 3q-84 0 -141.5 -54.5t-57.5 -131.5q0 -23 7 -50h-21z
M760 176l17 -60l-63 36q-5 -1 -21.5 -5t-27.5 -6t-22 -2q-83 0 -140.5 50t-57.5 120.5t57.5 120.5t140.5 50q80 0 139.5 -50.5t59.5 -120.5q0 -74 -82 -133v0zM339 555q-14 0 -24.5 -8t-10.5 -21t11 -21t24 -8t21.5 8t8.5 21t-8.5 21t-21.5 8zM708 385q-9 0 -16 -7t-7 -17
q0 -8 7 -14.5t16 -6.5q12 0 20.5 6.5t8.5 14.5q0 10 -8 17t-21 7z" />
    <glyph glyph-name="star2" unicode="&#xe62f;" 
d="M983 393h-359l-112 343l-111 -343h-360l291 -211l-111 -342l291 211l291 -211l-111 342zM712 -31l-200 145l-199 -145l76 235l-200 145h247l76 235l77 -235h246l-199 -145z" />
    <glyph glyph-name="star3" unicode="&#xe619;" 
d="M518 705l132 -268l296 -43l-214 -209l51 -294l-265 139l-265 -139l51 294l-214 209l296 43z" />
    <glyph glyph-name="down" unicode="&#xe653;" 
d="M1025 603l-513 -607l-513 607h76l437 -507l438 507h75z" />
    <glyph glyph-name="daohang" unicode="&#xe61d;" 
d="M559 -79h-4q-9 2 -16 8.5t-8 16.5l-56 402l-401 56q-10 1 -17 8t-8 17q-3 21 17 30l866 385q19 8 33 -6t6 -32l-385 -868q-8 -17 -27 -17zM182 447l322 -45q10 -2 16.5 -8.5t8.5 -16.5l45 -323l313 707z" />
    <glyph glyph-name="gou" unicode="&#xe647;" 
d="M390 119l-250 270q-13 13 -31.5 13t-31.5 -13t-13 -31.5t13 -31.5l279 -299q14 -14 34 -13q19 -1 34 13l523 518q13 13 13 31.5t-13 32t-31.5 13.5t-31.5 -13z" />
    <glyph glyph-name="weibo" unicode="&#xe634;" 
d="M466 386q-77 -4 -130 -40t-53 -86q0 -51 53.5 -84t129.5 -30q75 4 129 44.5t54 91.5q0 49 -53 78.5t-130 25.5zM535 216q-25 -32 -65.5 -40.5t-86.5 13.5q-12 7 -19 18.5t-8 18.5v8q1 1 -1 10t3 24.5t12 30t27 27t49 16.5q36 4 61 -9.5t33.5 -34.5t7.5 -44t-13 -38z
M418 267q-13 -2 -22.5 -12t-9.5 -23q0 -11 10 -18.5t24 -5.5t24 11.5t10 20.5q0 13 -10 20.5t-26 6.5zM467 280q-12 -8 -5 -19q6 -11 18 -2q11 9 5 19q-6 11 -18 2zM512.5 890q-103.5 0 -197.5 -40t-162 -108t-108.5 -162t-40.5 -197.5t40.5 -197.5t108.5 -162.5t162 -108.5
t197.5 -40t197.5 40t162 108.5t108 162.5t40 197.5t-40 197.5t-108 162t-162 108t-197.5 40zM739 237q-29 -63 -113.5 -96.5t-167.5 -27.5q-41 4 -76 12t-71 25t-59 47.5t-28 72.5v16.5t11 42.5t34 63q3 4 8.5 11t23 26.5t35 36t43.5 33.5t50 25q25 9 43 9t28 -5t16 -15
t7.5 -19t1.5 -19q-6 -20 -4 -28t23 -2q4 2 10 4.5t22.5 7.5t31 6.5t30.5 -1t26 -12.5q13 -13 14 -29.5t-4 -27.5l-5 -10l-1.5 -1.5t-1 -3t0 -5t4 -4.5t10.5 -4q9 -1 19.5 -6t23 -15.5t20.5 -24.5t7.5 -35.5t-12.5 -46.5zM656 481q-7 0 -12 5t-5 12t5 12t12 5q4 0 11 1t24 -2
t29.5 -11t21.5 -28.5t5 -52.5v-1q-2 -14 -16 -14q-7 0 -12 4.5t-5 11.5l1 25q-6 45 -59 33zM831 392v0q-2 -13 -7.5 -16.5t-16 -3.5t-17 6t-6.5 15q0 6 1 11.5t2 9.5l1 3q12 38 -7 80q-17 28 -45.5 43t-48 17t-26.5 0l-22 -6q-10 0 -17 7.5t-7 17.5q0 18 17 23l1 1l1 0.5
l1 0.5q48 9 83 0q27 -6 50.5 -20t45 -40t26 -62.5t-8.5 -86.5z" />
    <glyph glyph-name="shoujihao" unicode="&#xe622;" 
d="M704 -146h-387q-43 0 -73.5 33t-30.5 79v668q0 46 30.5 78.5t73.5 32.5h387q43 0 73 -32.5t30 -78.5v-668q0 -46 -30 -79t-73 -33zM756 634q0 23 -15.5 39.5t-36.5 16.5h-387q-22 0 -37 -16.5t-15 -39.5v-28h491v28zM756 550h-491v-445h491v445zM756 49h-491v-83
q0 -23 15 -39.5t37 -16.5h387q21 0 36.5 16.5t15.5 39.5v83zM510 -62q-16 0 -27 12t-11 29.5t11 29.5t27 12t27.5 -12t11.5 -29.5t-11.5 -29.5t-27.5 -12z" />
    <glyph glyph-name="iconfontqq" unicode="&#xe627;" 
d="M953 145l2 -14v-8v-6v-6l-1 -8l-1 -12l-3 -11l-3 -10l-1 -6l-2 -4l-3 -4l-2 -4l-2 -3l-3 -3l-2 -3l-3 -2l-3 -1l-3 -2l-3 -1h-2h-2l-3 1l-4 2l-2 2l-3 1l-2 3l-2 2l-4 4l-4 6l-4 6l-4 7l-4 6l-6 10l-5 11h-1h-1l-2 -1l-1 -3l-3 -4l-3 -10l-6 -16l-8 -18l-5 -9l-6 -10
l-8 -12l-7 -10l-4 -5l-5 -5l-10 -10l1 -1l1 4l5 -3l22 -12l11 -5l9 -5l9 -7l8 -7l4 -3l3 -4l4 -3l2 -6l2 -4l1 -4l1 -4l1 -4l-1 -3v-3l-1 -3l-1 -3l-1 -2l-2 -4l-4 -6l-4 -4l-3 -3l-2 -3l-6 -4l-7 -4l-8 -3l-7 -4l-10 -3l-5 -2l-4 -1l-10 -2l-10 -3l-12 -2l-11 -1l-12 -1
l-12 -3h-13h-13h-13l-14 1l-13 3l-13 1l-15 1l-14 3l-14 3l-14 3l-14 3l-13 5l-15 4l-6 3l-7 2l-4 1l-4 1h-5h-6l-14 1l-6 1h-8l-6 -4l-7 -5l-11 -5l-11 -6l-7 -3l-7 -3l-16 -6l-9 -3l-9 -2l-12 -3h-7l-10 -1l-8 -1l-9 -1h-10h-11h-21l-23 1l-22 2l-12 2l-11 2l-11 1l-10 3
l-10 3l-10 3l-9 3l-9 3l-7 4l-7 5l-7 4l-3 2l-3 3l-2 2l-3 3l-1 4l-1 4l-3 6l-1 2v4v3v4v4l1 4v2v5l1 4l2 5l1 5l2 5l2 2l2 3l4 5l5 2l2 2l4 3l4 1l4 2l4 2l5 2l6 2l6 1l7 1h7l7 1l2 2l1 1v1l-1 1l-4 2l-10 3l-8 5l-7 7l-8 8l-8 9l-9 12l-4 6l-5 6l-4 7l-4 7l-4 8l-3 9l-4 8
l-4 9l-3 9l-2 12h-1h-1v1h-1l-1 -1h-1l-1 -2l-1 -3l-1 -2l-1 -3l-6 -9l-2 -4l-3 -5l-4 -5l-5 -5l-4 -5l-5 -6l-6 -4l-5 -4l-6 -4l-7 -2l-8 -2l-3 -1h-2l-2 1h-2l-2 2l-1 2l-4 6l-1 3l-1 5l-2 6l-1 6l-1 11l-1 7v7v16l1 16l2 8l1 9l1 10l3 9l3 10l3 10l4 11l3 9l5 10l5 11
l7 10l7 11l7 10l7 10l6 9l8 8l9 9l3 4l5 4l7 6l7 6l11 11l9 6l3 2l-1 5l-2 7l-1 4v4v6v6l2 6l1 6l2 7l4 7l3 8l6 8v5v6l1 6l2 8l3 8l1 4l2 5l3 3l2 3v6v6v7l2 10l1 12l4 14l4 14l3 7l3 10l3 8l4 8l4 9l4 10l5 9l6 9l3 5l4 5l7 10l7 10l8 10l8 10l9 10l11 10l11 11l8 6l9 7
l9 6l11 6l10 7l10 4l11 5l12 4l12 4l12 4l13 3l12 2l13 2l14 1l13 2l13 1h13h14h14l13 -2l15 -1l13 -2l13 -3l15 -3l13 -3l13 -3l14 -5l12 -5l12 -5l14 -7l11 -7l11 -7l10 -7l4 -3l6 -4l9 -7l7 -8l8 -8l7 -8l6 -8l8 -9l5 -10l5 -8l6 -9l4 -8l8 -18l3 -9l3 -9l3 -9l4 -8l2 -8
l2 -9l4 -15l3 -13l1 -14l2 -10l2 -16l1 -2l1 -4l6 -9l3 -5l3 -6l3 -6l3 -7l3 -9l3 -8l1 -8l1 -5l1 -5v-5l-1 -4v-5l-1 -7l-4 -10l-2 -5l-2 -6v-2l1 -1l3 -5l13 -18l9 -14l4 -8l6 -10l5 -11l6 -11l7 -13l7 -15l4 -9l4 -9l3 -9l3 -8l2 -9l2 -8l3 -16z" />
    <glyph glyph-name="wechat" unicode="&#xe609;" 
d="M309 693q-69 -13 -125.5 -46.5t-91.5 -78.5t-51.5 -99.5t-10 -107t38 -103t86.5 -86.5q10 -6 9 -13.5t-15 -48.5l-16 -48l58 31l57 30l31 -7q54 -14 100 -14h16l-6 22q-16 60 2 120.5t61 105.5t108.5 73.5t139.5 28.5h27l-5 19q-22 76 -85 133t-150.5 81t-177.5 8z
M284 549q23 -16 24 -43t-21 -41q-17 -11 -35.5 -8.5t-29.5 14.5t-14.5 29t8.5 35q11 15 32 19.5t36 -5.5zM527 549q17 -12 21 -31t-3.5 -34.5t-24.5 -23.5t-37 -1q-30 12 -32.5 44t25.5 47q11 6 26 5.5t25 -6.5zM636 427q-106 -20 -171.5 -92t-61.5 -164q3 -61 37.5 -113
t88.5 -82.5t122.5 -42t137.5 9.5l22 6l46 -25q46 -25 48 -23q1 3 -11 40q-11 34 -10.5 40t14.5 16q54 39 78 91t18.5 103.5t-35.5 100t-76.5 83t-111.5 49.5t-135 3zM631 294q9 -7 13 -20t0 -24q-8 -25 -35 -26t-37 22q-11 27 11.5 45.5t47.5 2.5zM829 290q14 -14 12 -33.5
t-19 -28.5q-26 -13 -46.5 6.5t-7.5 45.5q9 16 28 19.5t33 -9.5zM564 -30z" />
    <glyph glyph-name="qq" unicode="&#xe68a;" 
d="M512 812q-139 0 -257 -68.5t-186.5 -186.5t-68.5 -257t68.5 -257t186.5 -186.5t257 -68.5t257 68.5t186.5 186.5t68.5 257t-68.5 257t-186.5 186.5t-257 68.5zM782 141q-8 -4 -21.5 5.5t-27.5 29.5q-9 -41 -48 -74q19 -7 30.5 -18.5t11.5 -24.5q0 -22 -30 -37t-72 -15
q-38 0 -67 12.5t-34 30.5h-13q-6 -18 -34.5 -30.5t-66.5 -12.5q-43 0 -73 15t-30 37q0 28 42 43q-39 33 -48 74q-30 -43 -49 -35q-13 7 -11 38.5t19 69.5q12 29 28 49.5t29 25.5v8q0 24 12 41v3q0 12 5 19q5 81 54.5 134t130 53t129.5 -53t53 -133q6 -10 6 -19v-3
q11 -17 11 -41v-7q14 -5 29.5 -25.5t28.5 -50.5q15 -39 17 -70t-11 -39z" />
    <glyph glyph-name="weixin-copy" unicode="&#xe602;" 
d="M237 575q0 -18 12.5 -30.5t30.5 -12.5t30.5 12.5t12.5 30.5v0q0 17 -12.5 29.5t-30.5 12.5t-30.5 -12.5t-12.5 -29.5v0zM571 353q0 -14 10 -24t24 -10t23.5 10t9.5 24t-9.5 23.5t-23.5 9.5t-24 -9.5t-10 -23.5zM456 575q0 -18 12.5 -30.5t30.5 -12.5t30.5 12.5t12.5 30.5
v0q0 17 -12.5 29.5t-30.5 12.5t-30.5 -12.5t-12.5 -29.5v0zM856 896h-689q-68 0 -116.5 -48.5t-48.5 -116.5v-688q0 -68 48.5 -116.5t116.5 -48.5h689q68 0 116.5 48.5t48.5 116.5v688q0 68 -48.5 116.5t-116.5 48.5zM384 214q-29 0 -108 16l-108 -55l31 93
q-123 87 -123 209q0 109 90.5 185.5t217.5 76.5q114 0 203 -61.5t109 -155.5q-16 2 -30 2q-110 0 -186 -71.5t-76 -172.5q0 -32 9 -65q-15 -1 -29 -1zM840 106l23 -77l-85 46q-61 -15 -92 -15q-110 0 -186.5 65.5t-76.5 158.5t76.5 158.5t186.5 65.5q105 0 183.5 -66.5
t78.5 -157.5q0 -97 -108 -178zM740 353q0 -14 9.5 -24t23.5 -10t24 10t10 24t-10 23.5t-24 9.5t-23.5 -9.5t-9.5 -23.5z" />
    <glyph glyph-name="youjiantou1" unicode="&#xe616;" 
d="M341 746q13 0 22 -9l353 -352l-353 -353q-10 -10 -22.5 -10t-22.5 10t-10 22.5t10 22.5l308 308l-308 307q-10 10 -10 22.5t10 22.5q9 9 23 9v0zM341 746z" />
    <glyph glyph-name="yan" unicode="&#xe640;" 
d="M1017 375q-7 -9 -17 -21.5t-39 -44t-60 -60t-77 -62.5t-92.5 -58.5t-105 -41t-114.5 -16.5t-114.5 16.5t-105 41t-92.5 58.5t-77 62.5t-60 60t-39 44t-17 21.5l-7 9l7 9q7 9 17 21.5t39 44t60 60t77 62.5t92.5 58.5t105 41t114.5 16.5t114.5 -16.5t105 -41t92.5 -58.5
t77 -62.5t60 -60t39 -44t17 -21.5l7 -9l-7 -9v0zM512 666q-66 0 -135.5 -25.5t-120.5 -59t-101 -78t-73.5 -70.5t-42.5 -49q19 -23 42.5 -49t73.5 -70.5t101 -78t120.5 -59t135.5 -25.5t135.5 25.5t120.5 59t101 78t73.5 70.5t42.5 49q-19 23 -42.5 49t-73.5 70.5t-101 78
t-120.5 59t-135.5 25.5v0zM512 151q-96 0 -164 68.5t-68 164.5t68 164.5t164 68.5t164 -68.5t68 -164.5t-68 -164.5t-164 -68.5v0zM512 586q-83 0 -142 -59t-59 -143t59 -143t142 -59t142 59t59 143t-59 143t-142 59v0z" />
    <glyph glyph-name="guanbiyanjing" unicode="&#xe61e;" 
d="M513 653q-60 0 -117 -15.5t-99.5 -38.5t-82.5 -55t-65 -58.5t-46.5 -55t-28 -39t-9.5 -15.5v0q3 -6 10 -14.5t30 -34.5t48 -49t65.5 -51.5t83 -49t98.5 -34.5t113 -14t112.5 13.5t99 35.5t82.5 48t66.5 52.5t47.5 48t30 35.5l10 14q-3 5 -8.5 15t-26 39t-44 55t-63 58.5
t-82 55.5t-102 38.5t-122.5 15.5zM513 170q-50 0 -100 12t-89.5 30.5t-75 41t-62 45t-45.5 41t-29 30l-10 11.5q3 5 9.5 13.5t27.5 33t44.5 47t60.5 50t75.5 47t90 33t103.5 13.5q55 0 107.5 -13t92.5 -34t75 -46t59.5 -50.5t42 -46.5t26 -34l8.5 -13q-7 -8 -19.5 -22.5
t-54.5 -51t-87 -64t-113 -50.5t-137 -23zM522.5 544q-65.5 0 -112 -46.5t-46.5 -112.5t46.5 -112.5t112 -46.5t112 46.5t46.5 112.5t-46.5 112.5t-112 46.5zM522 264q-50 0 -85.5 35.5t-35.5 85.5t35.5 85.5t85.5 35.5t86 -35.5t36 -85.5t-36 -85.5t-86 -35.5zM797 712
l-590 -630l26 -24l590 630z" />
    <glyph glyph-name="jiantouyou" unicode="&#xe63f;" 
d="M940 401l-201 201q-11 12 -23 0l-23 -23q-11 -11 0 -22l142 -142h-739q-6 0 -11 -4.5t-5 -11.5v-32q0 -6 5 -11t11 -5h739l-141 -141q-11 -11 0 -23l23 -22q11 -12 22 0l200 200q7 7 3 17q7 11 -2 19z" />
    <glyph glyph-name="2xuanzhong" unicode="&#xe606;" 
d="M822 695q-63 62 -143 95.5t-168 33.5t-168.5 -33.5t-143 -95.5t-95.5 -142.5t-33 -168.5t33 -168t95.5 -142.5t143 -96t168.5 -33.5t168 33.5t142.5 96t95.5 142.5t33 168t-33 168.5t-95 142.5v0v0zM752 513l-299 -300v0h-1v0q-9 -8 -20 -8q-5 0 -9 1v0q-2 1 -4 1
q-5 3 -8 6v0l-142 142q-9 9 -9 21t9 21t21 9t21 -9l121 -121l278 279q9 9 21 9t21 -9t9 -21t-9 -21v0v0zM752 513z" />
    <glyph glyph-name="zhifubao" unicode="&#xe63d;" 
d="M305 339q32 0 67.5 -7.5t50.5 -12.5t61 -24.5t49 -20.5q-63 -77 -117.5 -118.5t-110.5 -41.5q-30 0 -60.5 5.5t-60.5 17t-49 34.5t-19 54q0 36 30 63t72 39t87 12v0zM1023 805v-842q0 -37 -26.5 -63.5t-63.5 -26.5h-842q-37 0 -63.5 26.5t-26.5 63.5v842q0 37 26.5 63.5
t63.5 26.5h842q37 0 63.5 -26.5t26.5 -63.5v0zM1023 210q-21 5 -47.5 12.5t-68 21.5t-65.5 22t-82 28.5t-75 26.5q44 76 68 164l4 11q1 6 2.5 13t3 16t2.5 13h-203v51h256v51h-256v103h-103v-103h-255v-51h255v-51h-204v-51h382q-14 -70 -49 -133q-18 6 -58 17t-110 24
t-117 13q-33 0 -71 -12.5t-72.5 -34.5t-57.5 -58t-23 -78q0 -87 58 -134t166 -47q193 0 322 191q90 -39 228.5 -106t169.5 -80v161v0z" />
    <glyph glyph-name="liwu" unicode="&#xe623;" 
d="M858 601h-137q28 36 28 81q0 55 -38.5 93.5t-92.5 38.5q-67 0 -106 -54q-39 54 -106 54q-54 0 -92.5 -38.5t-38.5 -93.5q0 -45 28 -81h-137q-35 0 -60 -25t-25 -60v-105q0 -29 17 -51.5t44 -30.5v-290q0 -34 24 -58.5t59 -24.5h277q5 -2 10 -2t10 2h277q35 0 59 24.5
t24 58.5v290q27 8 44 30.5t17 51.5v105q0 35 -25 60t-60 25zM618 763q33 0 56.5 -23.5t23.5 -57t-23.5 -57t-56.5 -23.5h-81v80v0q0 34 24 57.5t57 23.5zM406 763q33 0 57 -23.5t24 -57.5v-80h-81v0q-33 0 -56.5 23.5t-23.5 57t23.5 57t56.5 23.5zM132 411v105q0 14 10 24.5
t24 10.5h321v-174h-321q-14 0 -24 10t-10 24zM193 39v287h294v-319h-262q-14 0 -23 9.5t-9 22.5zM799 7h-262v319h295v-287q0 -13 -9.5 -22.5t-23.5 -9.5zM892 411q0 -14 -10 -24t-24 -10h-321v174h321q14 0 24 -10.5t10 -24.5v-105z" />
    <glyph glyph-name="duoxuanxuanxiangline" unicode="&#xe76e;" 
d="M512 811q-116 0 -214 -57.5t-155.5 -155.5t-57.5 -214t57.5 -214t155.5 -155.5t214 -57.5t214 57.5t155.5 155.5t57.5 214t-57.5 214t-155.5 155.5t-214 57.5zM512 0q-159 0 -271.5 112.5t-112.5 271.5t112.5 271.5t271.5 112.5t271.5 -112.5t112.5 -271.5t-112.5 -271.5
t-271.5 -112.5z" />
    <glyph glyph-name="xiajiang" unicode="&#xe654;" 
d="M756 146l-227 -186q-5 -4 -17 -3q-6 -1 -12 2q-6 2 -11 6v1q-2 1 -3 2l-226 185q-4 3 -3.5 16.5t9.5 21.5t23 8.5t17 -3.5l173 -143v731q0 7 10 15.5t22.5 8.5t22 -8.5t9.5 -15.5v-732l168 137q24 23 46.5 1.5t-1.5 -44.5z" />
    <glyph glyph-name="qian" unicode="&#xe631;" 
d="M694 609l-182 -182l-182 182q-6 6 -15 6t-15 -6t-6 -15t6 -15l161 -161h-109q-9 0 -15 -6t-6 -15t6 -15t15 -6h139v-90h-127q-9 0 -15 -6t-6 -15t6 -15t15 -6h127v-132q0 -8 6.5 -14.5t15 -6.5t15 6.5t6.5 14.5v132h127q9 0 15 6t6 15t-6 15t-15 6h-127v90h139
q8 0 14.5 6t6.5 15t-6.5 15t-14.5 6h-110l161 161q6 6 6 15t-6 15t-15 6t-15 -6zM512 831q-91 0 -173.5 -35.5t-142.5 -95.5t-95.5 -142.5t-35.5 -173.5t35.5 -173.5t95.5 -142.5t142.5 -95.5t173.5 -35.5t173.5 35.5t142.5 95.5t95.5 142.5t35.5 173.5t-35.5 173.5
t-95.5 142.5t-142.5 95.5t-173.5 35.5zM512 -20q-110 0 -203 54t-147 147t-54 203t54 203t147 147t203 54t203 -54t147 -147t54 -203t-54 -203t-147 -147t-203 -54z" />
    <glyph glyph-name="play-btn" unicode="&#xe6cd;" 
d="M964 420l-723 461q-15 11 -37 0q-18 -9 -18 -31v-928q0 -21 18 -31q7 -3 16 -3q6 0 18 6l726 465q15 10 15 30q0 16 -15 31zM257 -10v799l624 -400l-624 -399v0z" />
    <glyph glyph-name="liebiao-copy" unicode="&#xe618;" horiz-adv-x="1000" 
d="M327.5 597q-15.5 0 -26.5 -10.5t-11 -26t11 -26.5t26.5 -11t26.5 11t11 26.5t-11 26t-26.5 10.5zM327.5 299q-15.5 0 -26.5 -10.5t-11 -26t11 -26.5t26.5 -11t26.5 11t11 26.5t-11 26t-26.5 10.5zM327.5 448q-15.5 0 -26.5 -10.5t-11 -26t11 -26.5t26.5 -11t26.5 11
t11 26.5t-11 26t-26.5 10.5zM700 299h-223q-16 0 -27 -10.5t-11 -26t11 -26.5t27 -11h223q15 0 26 11t11 26.5t-11 26t-26 10.5zM700 597h-223q-16 0 -27 -10.5t-11 -26t11 -26.5t27 -11h223q15 0 26 11t11 26.5t-11 26t-26 10.5zM812 821h-596q-31 0 -52.5 -22t-21.5 -53
v-670q0 -31 21.5 -52.5t52.5 -21.5h596q31 0 52.5 21.5t21.5 52.5v670q0 31 -21.5 53t-52.5 22zM812 113q0 -15 -11 -26t-26 -11h-522q-15 0 -26 11t-11 26v596q0 15 11 26t26 11h522q15 0 26 -11t11 -26v-596zM700 448h-223q-16 0 -27 -10.5t-11 -26t11 -26.5t27 -11h223
q15 0 26 11t11 26.5t-11 26t-26 10.5z" />
    <glyph glyph-name="liebiao-copy1" unicode="&#xe625;" 
d="M845 -16h-666q-10 0 -17 7t-7 17v752q0 10 7 17t17 7h666q10 0 17 -7t7 -17v-752q0 -10 -7 -17t-17 -7zM333 572q0 13 -9.5 22.5t-23 9.5t-23 -9.5t-9.5 -22.5v0q0 -14 9.5 -23.5t23 -9.5t23 9.5t9.5 23.5v0zM333 376q0 13 -9.5 22.5t-23 9.5t-23 -9.5t-9.5 -22.5v0
q0 -14 9.5 -23.5t23 -9.5t23 9.5t9.5 23.5v0zM333 180q0 13 -9.5 23t-23 10t-23 -10t-9.5 -23v0q0 -14 9.5 -23.5t23 -9.5t23 9.5t9.5 23.5v0zM739 592q0 5 -3.5 8.5t-8.5 3.5h-333q-5 0 -8.5 -3.5t-3.5 -8.5v-41q0 -5 3.5 -8.5t8.5 -3.5h333q5 0 8.5 3.5t3.5 8.5v41z
M739 396q0 5 -3.5 8.5t-8.5 3.5h-333q-5 0 -8.5 -3.5t-3.5 -8.5v-41q0 -5 3.5 -8.5t8.5 -3.5h333q5 0 8.5 3.5t3.5 8.5v41zM739 200q0 5 -3.5 9t-8.5 4h-333q-5 0 -8.5 -4t-3.5 -9v-40q0 -6 3.5 -9.5t8.5 -3.5h333q5 0 8.5 3.5t3.5 9.5v40z" />
    <glyph glyph-name="xuanzhong" unicode="&#xe650;" 
d="M880 844h-736q-38 0 -65 -27t-27 -65v-736q0 -38 27 -65t65 -27h736q38 0 65 27t27 65v736q0 38 -27 65t-65 27zM834 547l-371 -371q-9 -9 -22 -9t-23 9l-228 228q-9 10 -9 23t9 22.5t22.5 9.5t22.5 -10l206 -205l348 348q9 9 22.5 9t22.5 -9.5t9 -22.5t-9 -22z" />
    <glyph glyph-name="jigsaw-copy" unicode="&#xe61c;" 
d="M850 405h-63v169q0 35 -25 60t-60 25h-169v63q0 44 -31 75t-74.5 31t-74.5 -31t-31 -75v-63h-169q-35 0 -59.5 -25t-24.5 -60l-1 -160h64q47 0 80.5 -33.5t33.5 -81t-33.5 -81t-80.5 -33.5h-64v-160q0 -35 25 -60t60 -25h160v64q0 47 33.5 80.5t81 33.5t81 -33.5
t33.5 -80.5v-64h160q35 0 60 25t25 60v169h63q44 0 75 31t31 74.5t-31 74.5t-75 31z" />
    <glyph glyph-name="pengyouquan" unicode="&#xe635;" 
d="M512 896q-139 0 -257 -68.5t-186.5 -186.5t-68.5 -257t68.5 -257t186.5 -186.5t257 -68.5t257 68.5t186.5 186.5t68.5 257t-68.5 257t-186.5 186.5t-257 68.5zM715 587q42 -42 64 -98l-159 -151l30 297q36 -19 65 -48zM512 671q59 0 114 -24l-5 -219l-189 231
q39 12 80 12zM309 587q42 42 98 64l151 -159l-297 30q20 36 48 65zM225 384q0 59 24 114l219 -5l-231 -189q-12 40 -12 80zM309 181q-42 42 -64 98l159 151l-30 -297q-36 20 -65 48zM512 97q-59 0 -114 24l5 219l189 -231q-39 -12 -80 -12zM715 181q-42 -42 -98 -64
l-151 159l297 -30q-20 -36 -48 -65zM775 270l-219 5l231 189q12 -39 12 -80q0 -59 -24 -114z" />
    <glyph glyph-name="xin" unicode="&#xe626;" 
d="M701 740q-83 0 -190 -127q-107 127 -190 127q-101 0 -173 -69t-72 -166q0 -36 13 -72t24.5 -55t33.5 -49q26 -36 70 -79t83.5 -76.5t85 -68t63.5 -47.5t30 -21q15 -9 32 -9t31 9q12 8 30.5 21t64 47.5t85 68t83.5 76.5t69 79q22 30 34 49t24.5 55t12.5 72q0 97 -71.5 166
t-172.5 69v0zM701 740z" />
    <glyph glyph-name="xihuan02" unicode="&#xe614;" horiz-adv-x="1025" 
d="M1021 600q-22 129 -142 200q-70 42 -149 42q-102 0 -176 -68q-15 -14 -42 -43q-59 73 -130 96q-128 43 -245 -32q-138 -87 -137 -244q1 -91 62 -178q66 -93 174 -201q48 -49 149 -148l49 -48q5 -5 13 -12l5 -5q28 -23 60 -23q35 0 66 28q161 153 258 258q91 98 136 166
q67 102 49 212zM929 416q-42 -64 -131 -160q-95 -103 -255 -254q-16 -15 -31 -15q-13 0 -26 10l-4 4l-12 12l-49 47q-101 99 -149 148q-104 106 -168 195q-52 73 -53 148q0 129 114 201q61 39 126 39q37 0 75 -13q58 -19 111 -85q14 -17 35 -17q20 0 35 17l2 2q26 29 39 41
q60 55 142 55q65 0 123 -35q100 -59 117 -164q15 -91 -41 -176v0z" />
    <glyph glyph-name="asmkticon0142" unicode="&#xe7bf;" 
d="M442 371h-58v58q0 8 -5.5 13.5t-13.5 5.5t-13.5 -5.5t-5.5 -13.5v-58h-58q-8 0 -13.5 -5.5t-5.5 -13.5t5.5 -13.5t13.5 -5.5h58v-58q0 -8 5.5 -13.5t13.5 -5.5t13.5 5.5t5.5 13.5v58h58q8 0 13.5 5.5t5.5 13.5t-5.5 13.5t-13.5 5.5zM608 352zM576 352q0 13 9.5 22.5
t22.5 9.5t22.5 -9.5t9.5 -22.5t-9.5 -22.5t-22.5 -9.5t-22.5 9.5t-9.5 22.5zM736 352zM704 352q0 13 9.5 22.5t22.5 9.5t22.5 -9.5t9.5 -22.5t-9.5 -22.5t-22.5 -9.5t-22.5 9.5t-9.5 22.5zM672 576h-141v96q0 8 -5.5 13.5t-13.5 5.5t-13.5 -5.5t-5.5 -13.5v-96h-141
q-93 0 -158.5 -66t-65.5 -158v0q0 -92 66 -158t158 -66h320q93 0 158.5 66t65.5 158v0q0 92 -65.5 158t-158.5 66zM672 166h-320q-77 0 -131.5 54.5t-54.5 131.5t54.5 131.5t131.5 54.5h320q77 0 131.5 -54.5t54.5 -131.5t-54.5 -131.5t-131.5 -54.5z" />
    <glyph glyph-name="tubiao2223" unicode="&#xe61a;" 
d="M822 169q-109 -112 -272 -256q-15 -15 -38 -15q-19 0 -38 15q-57 51 -118 108t-135.5 131.5t-129 140.5t-68.5 104q-23 58 -21 119t22.5 115t61.5 98t96 67q86 37 176 13.5t151 -97.5q0 -2 3 -2t3 2q61 74 152 97.5t175 -13.5q55 -23 96.5 -67t62 -98t22.5 -115t-22 -119
q-21 -55 -113 -154z" />
    <glyph glyph-name="wenhao1" unicode="&#xe620;" 
d="M512 -128q-104 0 -199 40.5t-163.5 109t-109 163.5t-40.5 199t40.5 199t109 163.5t163.5 109t199 40.5t199 -40.5t163.5 -109t109 -163.5t40.5 -199t-40.5 -199t-109 -163.5t-163.5 -109t-199 -40.5zM512 847q-94 0 -180 -36.5t-148 -98.5t-98.5 -148t-36.5 -180
t36.5 -180t98.5 -148t148 -98.5t180 -36.5t180 36.5t148 98.5t98.5 148t36.5 180t-36.5 180t-98.5 148t-148 98.5t-180 36.5zM481 229q-1 12 -1 18q0 36 11 63q7 20 24 40q13 15 45 43.5t41.5 45t9.5 36.5q0 36 -28 63.5t-69 27.5q-40 0 -66.5 -25t-34.5 -77l-64 7
q9 71 51.5 108.5t112.5 37.5q74 0 118 -40.5t44 -97.5q0 -33 -15.5 -60.5t-60.5 -67.5q-31 -27 -40 -40t-13.5 -29t-5.5 -53h-59v0zM477 105v70h70v-70h-70z" />
    <glyph glyph-name="alipay" unicode="&#xe64d;" 
d="M492 255q-41 -50 -88.5 -80.5t-86.5 -40t-77.5 -8.5t-59 6.5t-32.5 11.5q-25 6 -41.5 29.5t-19.5 51t11.5 55.5t44.5 43q51 15 102.5 17t99.5 -9t84 -24.5t76 -32.5l-13 -19v0zM643 304q28 50 49.5 105t29.5 85l7 30h-12h-97h-106v81h252v32h-251v120h-115v-120h-228v-37
h228v-81h-192v-35h394v-4q-1 -4 -3 -11.5t-3 -11.5q-9 -44 -49 -125q-53 20 -100.5 33.5t-82 20t-66 8.5t-51.5 0.5t-39.5 -5.5t-28 -7.5t-19 -9t-11.5 -5.5q-39 -28 -61 -59.5t-25 -60t3 -56.5t20.5 -50.5t30 -39.5t29.5 -26t21 -8q259 -56 430 147q3 4 19 -4
q28 -16 119.5 -59.5t168.5 -79.5l78 -36v170q-67 6 -339 99v0zM643 304z" />
    <glyph glyph-name="weibo-copy" unicode="&#xe60a;" 
d="M386 164q11 18 6 38.5t-25 28.5t-42.5 0t-33.5 -25q-13 -20 -8 -39t24.5 -29.5t43 -1t35.5 27.5v0zM439 232q5 7 2 15.5t-10 10.5q-7 3 -16 0t-13 -10q-9 -19 9 -27q8 -2 16 1t12 10v0zM538 171q-25 -58 -89.5 -84.5t-127.5 -7.5q-61 20 -83.5 73t2.5 106q28 53 87 79.5
t119 10.5q64 -17 91.5 -68t0.5 -109zM716 263q-6 54 -50.5 96t-119 62t-156.5 12q-126 -13 -210 -80.5t-75 -150.5q5 -54 50.5 -96t118 -62.5t156.5 -12.5q127 14 210 81t76 151v0zM891 260q0 -39 -20.5 -78.5t-62 -78.5t-96 -66.5t-128.5 -48t-154 -17.5t-157.5 19.5
t-136.5 52t-97.5 86.5t-36.5 114q0 65 39.5 139.5t112.5 146.5q95 96 194 134t140 -3q37 -37 11 -120q-2 -8 0 -11t5 -4t8.5 0t8.5 2l3 1q79 34 140.5 34t86.5 -35q26 -36 0 -101q-1 -8 -3 -11t3 -7t7 -5t10 -3q32 -11 58.5 -27t45 -46.5t19.5 -66.5v0zM849 616
q24 -28 31 -62.5t-3 -67.5q-5 -12 -17.5 -19t-25.5 -2q-12 5 -19.5 17t-2.5 26q12 35 -12.5 61.5t-61.5 20.5q-13 -3 -25.5 4.5t-14.5 21.5q-3 14 5.5 25.5t20.5 14.5q34 7 68 -3.5t57 -36.5zM952 709q49 -55 64.5 -127.5t-8.5 -137.5q-5 -15 -19 -23t-29.5 -2t-22.5 19.5
t-3 29.5q16 47 6 98t-46 90t-85 53.5t-97 5.5q-17 -3 -30 6t-17 24.5t5 29.5t25 16q70 15 139 -5.5t118 -76.5v0z" />
    <glyph glyph-name="cart" unicode="&#xe68e;" horiz-adv-x="1186" 
d="M1020 261l195 437q2 4 2 10q0 7 -4 13q-8 11 -21 11v0h-837l-32 144q-5 20 -25 20v0h-273v0q-10 0 -17.5 -7.5t-7.5 -17.5t7.5 -17.5t17.5 -7.5h253l157 -716q-45 -10 -75 -45.5t-30 -81.5q0 -54 39 -92.5t94 -38.5t94 38.5t39 92.5q0 44 -29 80h290q-30 -36 -30 -80
q0 -54 39 -92.5t94 -38.5t94 38.5t39 92t-39 92t-94 38.5h-1h-2v0h-471v1v1l-24 111h535q17 0 23 15zM463.5 -78q-34.5 0 -58.5 23.5t-24 57t24 57t58.5 23.5t58.5 -23.5t24 -57t-24 -57t-58.5 -23.5zM1043 2.5q0 -33.5 -24.5 -57t-58.5 -23.5t-58 23.5t-24 57t24 57
t58 23.5t58.5 -23.5t24.5 -57zM457 295l-91 388h787l-173 -388h-523z" />
    <glyph glyph-name="zan01" unicode="&#xe636;" 
d="M957 485q-28 46 -87 49h-6l-207 1q22 66 22 130q0 43 -10 86l-1 4v0q-10 38 -36 61t-64 23q-43 0 -64.5 -26.5t-29.5 -87.5q-1 -4 -2 -11t-7 -27.5t-14.5 -39t-25.5 -43t-38.5 -43.5t-55 -35t-73.5 -22l-4 -1l-1 -290v-242h15h1h3v0h514h10q24 0 51 17q26 17 40 45
q4 6 6 13l80 356q1 7 1 14q3 37 -17 69zM80 505h129v-534h-129v534z" />
    <glyph glyph-name="iconlock" unicode="&#xe61b;" 
d="M508 316q-10 0 -16.5 -5.5t-6.5 -13.5v0v-146v0q0 -8 6.5 -14t16 -6t16.5 6t7 14v0v146q0 8 -7 13.5t-16 5.5v0zM800 512h-50v78q0 101 -69 171q-69 72 -173 72t-174 -72q-68 -70 -68 -171v-78h-42q-35 0 -59.5 -23t-24.5 -55v-421q0 -32 24.5 -55t59.5 -23h576
q35 0 59.5 23t24.5 55v421q0 32 -24.5 55t-59.5 23v0zM312 590q0 84 56 140.5t140 56.5t140 -56.5t56 -140.5v-78h-392v78v0zM839 13q0 -13 -11.5 -22.5t-27.5 -9.5h-576q-16 0 -27.5 9.5t-11.5 22.5v421q0 13 11.5 22.5t27.5 9.5h576q16 0 27.5 -9.5t11.5 -22.5v-421v0z
" />
    <glyph glyph-name="zhuyi" unicode="&#xe611;" 
d="M512 259q-27 0 -46 19t-19 46v338q0 27 19 46.5t46 19.5t46 -19.5t19 -46.5v-338q0 -27 -19 -46t-46 -19v0zM512 43q-27 0 -46 19t-19 46.5t19 46.5t46 19t46 -19t19 -46.5t-19 -46.5t-46 -19v0zM512 823q-89 0 -170.5 -35t-140 -93.5t-93.5 -140t-35 -170.5t35 -170.5
t93.5 -140t140 -93.5t170.5 -35t170.5 35t140 93.5t93.5 140t35 170.5t-35 170.5t-93.5 140t-140 93.5t-170.5 35v0zM512 -128q-104 0 -199 40.5t-163.5 109t-109 163.5t-40.5 199t40.5 199t109 163.5t163.5 109t199 40.5t199 -40.5t163.5 -109t109 -163.5t40.5 -199
t-40.5 -199t-109 -163.5t-163.5 -109t-199 -40.5v0z" />
    <glyph glyph-name="youjiantou" unicode="&#xe621;" 
d="M727 483l-329 328q-21 21 -50.5 21t-50.5 -21t-21 -50.5t21 -50.5l278 -278l-278 -278q-21 -21 -21 -50.5t21 -50.5t50.5 -21t50.5 21l329 328q21 21 21 51t-21 51z" />
    <glyph glyph-name="shengyin" unicode="&#xe662;" 
d="M784 525q-16 25 -45 54q-7 8 -19 7t-19 -10q-8 -7 -7 -19t10 -19l10 -10q16 -16 25 -35q94 -142 -38 -279q-7 -7 -7 -19t7 -19t19 -7t19 7q55 59 76.5 121t12.5 117.5t-44 110.5zM896 650q-16 25 -54 70q-5 6 -9.5 10.5t-9.5 9t-7 6.5q-7 7 -19 6.5t-19 -10.5
q-8 -7 -7.5 -19t10.5 -19q0 -1 4.5 -4t9 -8t8.5 -10q32 -39 48 -64q175 -265 -70 -519q-7 -7 -7 -19t7 -19t19 -7t19 7q95 99 132.5 203.5t21.5 198.5t-77 187zM483 810l-217 -186h-109q-44 0 -76.5 -32t-32.5 -77v-272q0 -45 31.5 -77t77.5 -32h96l230 -182
q41 -31 73.5 -15t32.5 66v755q0 53 -33.5 69t-72.5 -17zM534 6q0 -16 -3.5 -17.5t-15.5 8.5l-237 185q-6 7 -16 7h-105q-22 0 -38.5 16.5t-16.5 37.5v272q0 22 16.5 38.5t38.5 16.5h118q10 0 16 6l224 192q12 10 14 9t2 -15v-756h3z" />
    <glyph glyph-name="rank-up" unicode="&#xe601;" 
d="M755 506l-222 222q-9 9 -21 9t-21 -9l-222 -222q-9 -9 -9 -21.5t9 -21t21 -8.5t21 9l171 171v-573q0 -13 9 -22t21.5 -9t21.5 9t9 22v572l170 -170q9 -9 21 -9t21 8.5t9 21t-9 21.5z" />
    <glyph glyph-name="zan" unicode="&#xe696;" 
d="M855 489h-138v223q0 50 -35.5 85.5t-85 35.5t-85 -35.5t-35.5 -85.5v-17q0 -14 -5 -35t-22 -52.5t-44 -57t-78 -45t-117 -20.5h-16q-9 0 -22.5 0.5t-21 0.5h-8.5q-13 -1 -25 -5t-25 -14t-21 -31t-8 -51v-344q0 -43 30.5 -73.5t73.5 -30.5h585q20 0 36.5 9t27 20t20 29.5
t13 28t8.5 24.5l100 327q2 5 2 10q0 43 -30.5 73.5t-73.5 30.5zM132 41v344q0 32 11 32q2 0 50 -1h22v0v0q11 1 21 1v-411h-69q-15 0 -25 10t-10 25zM791 69q-20 -63 -39 -63h-447v421q54 13 97.5 40t69.5 57t43.5 64t24 60.5t6.5 46.5v17q0 22 15 37t36.5 15t36 -15
t14.5 -37v-258q0 -14 10.5 -24t24.5 -10h172q13 0 23 -9t11 -21z" />
    <glyph glyph-name="shezhi1" unicode="&#xe784;" 
d="M954 475q-4 22 -16 35.5t-28 13.5h-4q-46 0 -78.5 34.5t-32.5 82.5q0 10 2.5 21t4.5 17t3 7q8 20 2.5 41t-22.5 33l-1 2l-112 66h-2q-11 5 -23 5h-1v0q-11 0 -24.5 -5.5t-20.5 -13.5q-15 -17 -40.5 -34.5t-47 -17.5t-47.5 18t-41 35q-7 8 -20.5 14t-25.5 6v0v0
q-12 0 -23 -5l-2 -1l-116 -68l-1 -1q-17 -12 -22.5 -33t2.5 -41q10 -19 10 -45q0 -48 -32.5 -82.5t-78.5 -34.5h-5q-15 0 -27 -13.5t-16 -35.5q-9 -50 -9 -94q0 -34 9 -94q4 -22 16 -35.5t27 -13.5h5q46 0 78.5 -34.5t32.5 -82.5q0 -10 -2.5 -21t-4.5 -17t-3 -7
q-8 -20 -2.5 -41t22.5 -34h1l110 -66h1q12 -6 24 -6v0q28 0 46 21q16 18 42.5 36.5t47.5 18.5q22 0 48.5 -19.5t41.5 -36.5q17 -21 46 -21q12 0 23 5l2 1l114 66l1 1q17 13 22.5 34t-2.5 41q-10 19 -10 45q0 48 32.5 82.5t78.5 34.5h4q16 0 28 13.5t16 35.5q9 43 9 94
q0 42 -9 94zM901 305q-67 -5 -114 -62.5t-47 -130.5q0 -31 13 -66l-100 -59q-23 26 -39 39q-50 39 -105 39q-54 0 -102 -37q-16 -13 -39 -38l-96 57q13 35 13 66q0 73 -48.5 130t-115.5 62q-8 46 -8 76t8 76q68 5 117.5 60t49.5 127q0 31 -13 66l103 69q16 -18 38 -35
q54 -40 97 -40q45 0 92 35q22 17 43 39l99 -68q-17 -48 -17 -71q0 -71 51 -123.5t120 -58.5q8 -46 8 -76t-8 -76zM514 556q-71 0 -121.5 -50.5t-50.5 -122t50.5 -122t121.5 -50.5t121 50.5t50 122t-50 122t-121 50.5zM513 269q-46 0 -79 33.5t-33 80t33 79.5t79 33t79 -33
t33 -79.5t-33 -80t-79 -33.5z" />
    <glyph glyph-name="message" unicode="&#xe62e;" 
d="M289.5 520q-24.5 0 -42 -17.5t-17.5 -42t17.5 -42t42 -17.5t42 17.5t17.5 42t-17.5 42t-42 17.5zM527.5 520q-24.5 0 -42 -17.5t-17.5 -42t17.5 -42t42 -17.5t42 17.5t17.5 42t-17.5 42t-42 17.5zM765.5 520q-24.5 0 -42 -17.5t-17.5 -42t17.5 -42t42 -17.5t42 17.5
t17.5 42t-17.5 42t-42 17.5zM527.5 877q-129.5 0 -239.5 -55.5t-173.5 -151.5t-63.5 -210q0 -97 47.5 -181.5t131.5 -143.5v-211l208 127q46 -8 90 -8q129 0 239 56t173.5 152t63.5 209.5t-63.5 209.5t-173.5 151.5t-239.5 55.5zM528 103q-50 0 -101 11l-140 -85l1 139
q-82 49 -130 126t-48 166q0 97 56 179.5t152 130.5t209.5 48t209.5 -48t152 -130.5t56 -179.5t-56 -179t-152 -130t-209 -48z" />
    <glyph glyph-name="triangle" unicode="&#xe689;" 
d="M288 512h448l-226 -256z" />
    <glyph glyph-name="dagou" unicode="&#xe723;" 
d="M512 779q107 0 198 -53t144 -144t53 -198t-53 -198t-144 -144t-198 -53t-198 53t-144 144t-53 198t53 198t144 144t198 53zM512 832q-122 0 -225 -60t-163 -163t-60 -225t60 -225t163 -163t225 -60t225 60t163 163t60 225t-60 225t-163 163t-225 60zM456 179l-242 242
l37 37l205 -204l317 316l37 -37z" />
    <glyph glyph-name="AMII" unicode="&#xe603;" horiz-adv-x="4352" 
d="M2739 868l-493 -831l-515 859h-187l81 -136v-864q1 -10 8 -16.5t16 -6.5t16 6.5t7 16.5v786l482 -802l-5 -8h47l542 916v-916h187v1024h-186v-28v0zM654 896h-187l70 -117l-537 -907h179v33h-113l495 835l521 -868h275v33h-108zM3455 -128h187v1024h-187v-1024v0z
M4164 -128h187v1024h-187v-1024z" />
    <glyph glyph-name="layout-one" unicode="&#xe604;" 
d="M904 -128h-211q-50 0 -85.5 35.5t-35.5 84.5v211q0 50 35.5 85.5t85.5 35.5h211v0q49 0 84.5 -35.5t35.5 -85.5v-211q0 -49 -35.5 -84.5t-84.5 -35.5zM964 203q0 25 -18 43t-42 18h-211q-25 0 -43 -18t-18 -43v-211q0 -24 18 -42t43 -18h211q24 0 42 18t18 42v211z
M904 444h-211q-50 0 -85.5 35.5t-35.5 85.5v211q0 49 35.5 84.5t85.5 35.5h211v0q49 0 84.5 -35.5t35.5 -84.5v-211q0 -50 -35.5 -85.5t-84.5 -35.5zM964 776q0 24 -18 42t-42 18h-211q-25 0 -43 -18t-18 -42v-211q0 -25 18 -43t43 -18h211q24 0 42 18t18 43v211zM331 -128
h-211q-49 0 -84.5 35.5t-35.5 84.5v211q0 50 35.5 85.5t84.5 35.5h211v0q50 0 85.5 -35.5t35.5 -85.5v-211q0 -49 -35.5 -84.5t-85.5 -35.5zM392 203q0 25 -18 43t-43 18h-211q-24 0 -42 -18t-18 -43v-211q0 -24 18 -42t42 -18h211q25 0 43 18t18 42v211zM331 444h-211
q-49 0 -84.5 35.5t-35.5 85.5v211q0 49 35.5 84.5t84.5 35.5h211v0q50 0 85.5 -35.5t35.5 -84.5v-211q0 -50 -35.5 -85.5t-85.5 -35.5zM392 776q0 24 -18 42t-43 18v0h-211q-24 0 -42 -18t-18 -42v-211q0 -25 18 -43t42 -18h211q25 0 43 18t18 43v211z" />
    <glyph glyph-name="filter" unicode="&#xe605;" horiz-adv-x="1341" 
d="M0 896h918v-71h-918v71zM318 543h70v-671h-70v671zM530 543h70v-424h-70v424zM57 871l324 -324l-49 -50l-325 324zM537 547l324 324l50 -50l-324 -324zM1059 896h283v-71h-283v71zM918 437h424v-71h-424v71zM777 -57h565v-71h-565v71z" />
    <glyph glyph-name="layout-two" unicode="&#xe607;" 
d="M572 -98v60h452v-60h-452zM572 264h452v-61h-452v61zM572 565h452v-61h-452v61zM572 866h452v-60h-452v60zM331 -128h-211q-49 0 -84.5 35.5t-35.5 84.5v211q0 50 35.5 85.5t84.5 35.5h211v0q50 0 85.5 -35.5t35.5 -85.5v-211q0 -49 -35.5 -84.5t-85.5 -35.5zM392 203
q0 25 -18 43t-43 18h-211q-24 0 -42 -18t-18 -43v-211q0 -24 18 -42t42 -18h211q25 0 43 18t18 42v211zM331 444h-211q-49 0 -84.5 35.5t-35.5 85.5v211q0 49 35.5 84.5t84.5 35.5h211v0q50 0 85.5 -35.5t35.5 -84.5v-211q0 -50 -35.5 -85.5t-85.5 -35.5zM392 776
q0 24 -18 42t-43 18v0h-211q-24 0 -42 -18t-18 -42v-211q0 -25 18 -43t42 -18h211q25 0 43 18t18 43v211z" />
    <glyph glyph-name="coupon" unicode="&#xe60b;" horiz-adv-x="1751" 
d="M1722 467q-3 0 -12.5 1t-27.5 -4t-30 -15q-25 -22 -25 -70q0 -34 20 -53q12 -11 30.5 -16.5t29 -6t12.5 -0.5l28 1v-27v-405h-1743v433l28 -2q59 0 86 25q19 18 19 50q0 44 -25 66q-14 13 -35 19t-33 4.5t-15 -0.5l-29 -3v29v403h1752v-433zM1699 844h-1646v-325
q58 -4 94 -36q43 -38 43 -105q0 -55 -36 -88q-35 -33 -97 -38v-328h1637v328q-52 7 -83 36q-36 34 -36 91q0 72 43 109q31 27 81 31v325zM1382 27q-11 0 -19 8t-8 19t8 18.5t19 7.5v0q11 0 19 -7.5t8 -18.5t-8 -19t-19 -8v0zM1382 156q-11 0 -19 8t-8 19t8 18.5t19 7.5v0
q11 0 19 -7.5t8 -18.5t-8 -19t-19 -8v0zM1382 285q-11 0 -19 8t-8 19t8 18.5t19 7.5v0q11 0 19 -7.5t8 -18.5t-8 -19t-19 -8v0zM1382 414q-11 0 -19 8t-8 19t8 18.5t19 7.5v0q11 0 19 -7.5t8 -18.5t-8 -19t-19 -8v0zM1382 543q-11 0 -19 8t-8 19t8 18.5t19 7.5v0
q11 0 19 -7.5t8 -18.5t-8 -19t-19 -8v0zM1382 672q-11 0 -19 8t-8 19t8 18.5t19 7.5v0q11 0 19 -7.5t8 -18.5t-8 -19t-19 -8v0zM1117 433l-1 -88h-135l-13 -27v-43h149v-88h-149v-128h-143v128h-147v88h147v43l-13 27h-134v88h90l-145 265h153l102 -220l43 1l100 219h152
l-146 -265h90zM405 27v0q-11 0 -18.5 8t-7.5 19t7.5 18.5t19 7.5t19 -7.5t7.5 -18.5t-7.5 -19t-18.5 -8h-1zM405 156v0q-11 0 -18.5 8t-7.5 19t7.5 18.5t19 7.5t19 -7.5t7.5 -18.5t-7.5 -19t-18.5 -8h-1zM405 285v0q-11 0 -18.5 8t-7.5 19t7.5 18.5t19 7.5t19 -7.5
t7.5 -18.5t-7.5 -19t-18.5 -8h-1zM405 414v0q-11 0 -18.5 8t-7.5 19t7.5 18.5t19 7.5t19 -7.5t7.5 -18.5t-7.5 -19t-18.5 -8h-1zM405 543v0q-11 0 -18.5 8t-7.5 19t7.5 18.5t19 7.5t19 -7.5t7.5 -18.5t-7.5 -19t-18.5 -8h-1zM405 672v0q-11 0 -18.5 8t-7.5 19t7.5 18.5
t19 7.5t19 -7.5t7.5 -18.5t-7.5 -19t-18.5 -8h-1z" />
    <glyph glyph-name="coupon1" unicode="&#xe60c;" horiz-adv-x="1285" 
d="M1269 441l-417 -420l-132 -133q-16 -16 -38.5 -16t-37.5 16l-95 95l-39 39q13 9 21.5 25.5t8.5 31.5q0 28 -19.5 47.5t-47.5 19.5q-11 0 -25 -5.5t-22 -14.5l-8 -11l-40 40l-94 95q-20 20 -14 50l-8 8q-8 8 -8 19t8 19t19 8t19 -8l1 -2l115 116l283 285l-96 97l-398 -401
l19 -19q8 -8 8 -19t-8 -19t-19 -8t-19 8l-19 19l-113 -114l100 -101q33 16 71 10t65 -33q56 -57 22 -142l2 4l100 -101l20 20l38 -38l-20 -20q-16 -16 -38.5 -16t-37.5 16l-96 96l-38 38q13 9 21.5 25.5t8.5 31.5q0 28 -19.5 47.5t-47.5 19.5q-11 0 -25 -5.5t-22 -14.5
q-1 0 -8 -11l-40 40l-94 95q-16 16 -16 38.5t16 38.5l549 553q16 16 38 16t38 -16l95 -95l1 -2l96 97q16 16 38 16t38 -16l96 -96l38 -38q-13 -9 -21.5 -25.5t-8.5 -31.5q0 -28 19.5 -47.5t47.5 -19.5q11 0 25 5.5t22 14.5q1 0 8 11l39 -40v0l95 -95q16 -16 16 -38.5
t-16 -38.5zM1131 580q-33 -16 -71 -10t-65.5 33.5t-33.5 66t10 71.5l-100 101l-398 -401l19 -19q8 -8 8 -19t-8 -19t-19 -8t-19 8l-19 19l-113 -114l100 -101q33 16 71 10t65.5 -33.5t33.5 -66t-10 -71.5l100 -101l113 115l-19 19q-7 8 -7 19t7.5 19t19 8t18.5 -8l19 -19
l398 400zM701 136l-38 38q-8 8 -8 19t8 19t19 8t19 -8l38 -38q7 -8 7 -19t-7.5 -19t-19 -8t-18.5 8zM587 250l-57 58q-8 8 -8 19t8 19t19 8t19 -8l57 -57q8 -8 8 -19.5t-8 -19t-19 -7.5t-19 7z" />
    <glyph glyph-name="star" unicode="&#xe608;" horiz-adv-x="1088" 
d="M819 -122q-21 0 -39 10l-216 112q-10 6 -21 6h-1q-11 0 -21 -5l-215 -113q-18 -10 -39 -10h-2q-40 0 -67 30q-26 29 -19 70l41 237q1 3 1 6q0 20 -15 34l-173 165q-11 11 -19 29t-8 33q0 14 5 27q7 21 27.5 38.5t42.5 20.5l240 35q25 4 35 24l107 216q10 19 32.5 33
t44.5 14h1q25 0 46 -12.5t32 -34.5l107 -216q11 -21 35 -24l240 -35q25 -4 43.5 -19.5t26.5 -38.5q5 -13 5 -27q0 -15 -7.5 -33t-18.5 -29l-172 -166q-18 -16 -14 -40l41 -236q7 -40 -20 -69q-10 -14 -29.5 -23t-36.5 -9v0zM805 -58q8 -3 13 -3q12 0 20 10q8 9 6 20l-41 235
q-5 26 3.5 51.5t27.5 42.5l172 168q10 9 7 26q-2 7 -8.5 12t-13.5 5l-239 35q-27 4 -48.5 19.5t-33.5 38.5l-106 214q-7 14 -23 14q-15 0 -23 -15l-107 -213q-12 -23 -33.5 -38.5t-48.5 -19.5l-239 -35q-15 -3 -20 -17v-1q-5 -14 6 -25l173 -168q40 -38 31 -94l-40 -235
q-1 -3 -1 -5q0 -9 6 -14q8 -10 20 -10v0v0q6 0 12 2l216 112q21 13 49 13q25 0 49 -13z" />
    <glyph glyph-name="lajitong" unicode="&#xe62b;" 
d="M661 683v42q0 18 -12.5 30.5t-29.5 12.5h-214q-17 0 -29.5 -12.5t-12.5 -30.5v-42h-192v-43h64v-597q0 -18 12.5 -30.5t29.5 -12.5h470q17 0 29.5 12.5t12.5 30.5v597h64v43h-192zM405 725h214v-42h-214v42zM747 43h-470v597h470v-597zM619 555h42v-427h-42v427zM363 555
h42v-427h-42v427zM491 555h42v-427h-42v427z" />
    <glyph glyph-name="address" unicode="&#xe60d;" 
d="M512 -128q-14 19 -38 52t-85 125t-108 172.5t-85 172t-38 146.5q0 97 47 179t129 129.5t178 47.5t178 -47.5t129 -129.5t47 -179q0 -55 -36.5 -144t-88.5 -177t-104 -167.5t-88.5 -130t-36.5 -49.5zM512 870q-82 0 -158 -47t-123 -123.5t-47 -157.5q0 -47 35.5 -130
t78.5 -158t99.5 -161.5t79 -118t35.5 -49.5v0q13 18 35.5 49.5t79 118t99.5 161.5t78.5 158t35.5 130q0 81 -47 157.5t-123 123.5t-158 47zM525 476v0q-32 0 -55.5 23t-23.5 55.5t23.5 55.5t55.5 23v0q33 0 56 -23t23 -55.5t-23 -55.5t-56 -23z" />
    <glyph glyph-name="truck" unicode="&#xe60e;" horiz-adv-x="1582" 
d="M1443 58h-47q0 -77 -54.5 -131.5t-131.5 -54.5t-131.5 54.5t-54.5 131.5h-419q0 -77 -54.5 -131.5t-131.5 -54.5t-131.5 54.5t-54.5 131.5h-93q-58 0 -99 41t-41 99v558q0 58 41 99t99 41h698q44 0 80 -25.5t51 -66.5l334 -1l280 -279v-326q0 -58 -41 -99t-99 -41v0z
M419 -81v0q58 0 99 40.5t41 98.5t-41 99t-99 41v0q-58 0 -99 -41t-41 -99t41 -98.5t99 -40.5zM931 803v46h-884v-744h192q16 61 66 100t114 39t114 -39t66 -100h332v698zM1210 -81v0q58 0 99 40.5t41 98.5t-41 99t-99 41v0q-58 0 -98.5 -41t-40.5 -99t40.5 -98.5t98.5 -40.5
zM1536 531l-233 225h-326v-651h54q15 61 65 100t114 39t114 -39t66 -100h146v426z" />
    <glyph glyph-name="edit" unicode="&#xe60f;" 
d="M983 685l-484 -457h-165v165l474 467q15 15 40.5 25.5t46.5 10.5q51 0 87.5 -36t36.5 -87q0 -22 -10.5 -47.5t-25.5 -40.5zM943.5 821q-8.5 8 -22.5 14t-25.5 6t-26 -6t-22.5 -14l-458 -455v-83h82l403 376l-95 94l39 39l96 -96l30 28q8 8 14 22.5t6 26t-6 26t-14.5 22.5
zM60 -73h850v603h55v-521q0 -57 -40 -97t-97 -40h-686q-57 0 -97 40t-40 97v686q0 56 40 96.5t97 40.5h494v-55h-576v-850z" />
    <glyph glyph-name="close" unicode="&#xe610;" 
d="M1023 -76l-51 -51l-460 460l-460 -460l-51 51l460 460l-460 460l51 51l460 -460l460 460l51 -51l-460 -460z" />
    <glyph glyph-name="camera" unicode="&#xe612;" horiz-adv-x="1300" 
d="M1190 -128h-1079q-46 0 -78.5 32.5t-32.5 78.5v692q0 45 32.5 77.5t78.5 32.5h27v56q0 23 16.5 39t39.5 16h249v0q23 0 39 -16t16 -39v-56h692q46 0 78.5 -32.5t32.5 -77.5v-692q0 -46 -32.5 -78.5t-78.5 -32.5zM1245 619q0 46 -32 78.5t-78 32.5h-695q3 8 3 15v53
q0 17 -12.5 30t-30.5 13h-164q-17 0 -29.5 -13t-12.5 -30v-53q0 -7 3 -15h-31q-13 0 -28 -4q-25 -7 -45 -24l-1 -1l-1 -1l-9 -9q-3 -4 -5 -6q-8 -12 -14 -26q-2 -5 -4 -12l-0.5 -3t-1.5 -4q-2 -10 -2 -21v-581q0 -46 32.5 -78.5t78.5 -32.5h969q46 0 78 32.5t32 78.5v581z
M664.5 38q-114.5 0 -196 81t-81.5 195.5t81.5 196t196 81.5t195.5 -81.5t81 -196t-81 -195.5t-195.5 -81zM664 530q-89 0 -152 -63t-63 -152v0q0 -89 63 -152t152 -63v0q89 0 152 63t63 152t-63 152t-152 63z" />
    <glyph glyph-name="phone" unicode="&#xe613;" 
d="M783 -128h-542q-37 0 -63.5 26.5t-26.5 63.5v844q0 37 26.5 63.5t63.5 26.5h542q37 0 63.5 -26.5t26.5 -63.5v-844q0 -37 -26.5 -63.5t-63.5 -26.5zM452 -38h120q13 0 21.5 9t8.5 21.5t-8.5 21.5t-21.5 9h-120q-13 0 -21.5 -9t-8.5 -21.5t8.5 -21.5t21.5 -9zM813 776
h-602v-633h602v633z" />
    <glyph glyph-name="bianji" unicode="&#xe615;" 
d="M887 -128h-750q-57 0 -97 40t-40 97v750q0 57 40 97t97 40h409v-68h-394q-49 0 -66.5 -17.5t-17.5 -66.5v-720q0 -49 17.5 -66.5t66.5 -17.5h720q49 0 66.5 17.5t17.5 66.5v462h68v-477q0 -57 -40 -97t-97 -40zM475 396l435 434l48 -48l-434 -435z" />
    <glyph glyph-name="shanchu" unicode="&#xe617;" 
d="M922 725h-35v-682q0 -71 -50 -121t-120 -50h-410q-70 0 -120 50t-50 121v682h-35q-14 0 -24 10t-10 24.5t10 24.5t24 10h207q6 42 40.5 72t77.5 30h136q43 0 77.5 -30t40.5 -72h241q14 0 24 -10t10 -24.5t-10 -24.5t-24 -10zM614 828h-239v-34h239v34zM819 725h-614v-716
q1 -3 3 -7.5t9 -16.5t15 -21t19.5 -16.5t23.5 -7.5h475q19 0 36 17.5t25 33t8 18.5v716zM683 9v0q-14 0 -24 10t-10 24v546q0 14 10 24t24 10t24 -10t10 -24v-546v0q0 -14 -10 -24t-24 -10zM512 9v0q-14 0 -24 10t-10 24v546q0 14 10 24t24 10t24 -10t10 -24v-546v0
q0 -14 -10 -24t-24 -10zM341 9v0q-14 0 -24 10t-10 24v546q0 14 10 24t24 10t24 -10t10 -24v-546v0q0 -14 -10 -24t-24 -10z" />
    <glyph glyph-name="wenhao" unicode="&#xe6a9;" horiz-adv-x="1030" 
d="M512 896q-212 0 -362 -150t-150 -362t150 -362t362 -150t362 150t150 362q-1 139 -69.5 257t-186.5 186.5t-256 68.5zM542 83h-90v91h90v-91zM649 441q-12 -21 -56 -65q-43 -41 -51 -59t-8 -60l8 -24h-90l-2 25q2 48 14 78q14 32 58 78q33 34 49 57q8 16 8 37
q0 34 -21 52q-23 21 -59 21q-39 0 -56.5 -26t-21.5 -80h-90v9q2 50 12 75q13 31 37 52q26 24 57 34q36 11 64 11q70 0 116 -41.5t46 -111.5q0 -36 -14 -62z" />
    <glyph glyph-name="caidan" unicode="&#xe64e;" 
d="M512 384zM448 384q0 -26 19 -45t45.5 -19t45 19t18.5 45t-18.5 45t-45 19t-45.5 -19t-19 -45zM512 640zM448 640q0 -26 19 -45t45.5 -19t45 19t18.5 45t-18.5 45t-45 19t-45.5 -19t-19 -45zM512 128zM448 128.5q0 -26.5 19 -45.5t45.5 -19t45 19t18.5 45.5t-18.5 45
t-45 18.5t-45.5 -18.5t-19 -45z" />
    <glyph glyph-name="stars" unicode="&#xe628;" 
d="M431 839q9 23 32.5 39.5t48.5 16.5t48.5 -16.5t32.5 -39.5l74 -195q7 -21 29 -38t46 -19l200 -13q25 -1 47.5 -19.5t29.5 -42.5q4 -14 4 -29q0 -17 -9 -37t-23 -32l-154 -133q-13 -11 -22.5 -31.5t-9.5 -37.5q0 -12 3 -23l50 -203q3 -11 3 -23q0 -18 -10.5 -39.5
t-25.5 -32.5q-22 -18 -51 -18q-25 0 -46 15l-170 111q-21 15 -46.5 15t-46.5 -15l-169 -111q-21 -15 -46 -15q-29 0 -51 18q-15 11 -25.5 32.5t-10.5 39.5q0 12 3 23l49 203q3 11 3 23q0 17 -9 37.5t-22 31.5l-155 133q-13 11 -22.5 31.5t-9.5 37.5q0 15 5 29
q7 24 29.5 42.5t47.5 19.5l200 13q23 2 45 19t30 38z" />
    <glyph glyph-name="shouye" unicode="&#xe61f;" 
d="M1012 384l-498 466l-499 -465q-7 -6 -7.5 -16t6.5 -17.5t17 -8t17 6.5l466 434l465 -435q7 -7 17 -7t17 8q7 7 7 17t-8 17v0zM1012 384zM860 375q-10 0 -17 -7.5t-7 -17.5v-370h-193v258h-258v-258h-194v370q0 10 -7 17.5t-17 7.5t-17 -7.5t-7 -17.5v-418h290v257h161
v-257h290v418q0 10 -7 17.5t-17 7.5v0zM860 375zM691 721h145v-129q0 -10 7 -17t17 -7t17 7t7 17v177h-193q-10 0 -17 -7t-7 -17t7 -17t17 -7v0zM691 721z" />
    <glyph glyph-name="fenxiang" unicode="&#xe629;" horiz-adv-x="1052" 
d="M919 -128h-795q-41 0 -82.5 30.5t-41.5 72.5v804q0 41 41 69t83 28h324v-50h-324q-24 0 -50 -15.5t-26 -31.5v-804q0 -18 26 -36t50 -18h795q5 0 8 1t8 5.5t7 16.5t2 31v347h50v-347q0 -103 -75 -103v0zM340 97h-50q0 305 163 452q189 171 568 126l-6 -48
q-354 41 -529 -116q-74 -67 -110 -166.5t-36 -247.5v0zM825 422l-35 35l193 196l-194 209l36 34l227 -244l-227 -230v0z" />
    <glyph glyph-name="yaoqing" unicode="&#xe62a;" 
d="M535 268h-46v139h-140v47h140v93h-140v47h71l-48 197l40 12l51 -209h93l57 211l45 -12l-54 -199h71v-47h-140v-93h140v-47h-140v-139zM512.5 175h1.5q26 0 48 16l237 198q8 6 12 15l4 7v392q-1 19 -14.5 32.5t-32.5 14.5h-512q-19 -1 -32.5 -14.5t-14.5 -32.5v-391l4 -8
q5 -9 13 -15l237 -198q21 -16 48 -16h1.5zM512 128h-1q-18 0 -41 8t-37 20l-237 197q-16 13 -25 31h-8v419q0 38 27.5 65.5t65.5 27.5h512q38 0 65.5 -27.5t27.5 -65.5v-381v-3v-3v-32h-8q-9 -18 -24 -31l-238 -197q-14 -12 -36.5 -20t-40.5 -8h-2v0zM931 -82
q19 1 32.5 14.5t13.5 32.5v512q0 19 -13.5 33t-32.5 14h-116v279q-1 19 -14.5 32.5t-32.5 14.5h-512q-19 -1 -33 -14.5t-14 -32.5v-280h-116v0q-19 0 -32.5 -13.5t-13.5 -32.5v0v-512q0 -19 13.5 -32.5t32.5 -14.5h838v0zM931 -128h-838q-38 0 -65.5 27.5t-27.5 65.5v512
q0 39 27.5 66t65.5 27h70v233q0 38 27.5 65.5t65.5 27.5h512q38 0 65.5 -27.5t27.5 -65.5v-233h70q38 0 65.5 -27t27.5 -66v-512q0 -38 -27.5 -65.5t-65.5 -27.5v0z" />
    <glyph glyph-name="paihangbang" unicode="&#xe62c;" horiz-adv-x="1049" 
d="M508 737h32v159h-25q-2 -8 -6 -15q-4 -6 -10 -10q-7 -4 -14 -5q-6 -2 -13 -2h-3v-24h40zM184 598q-5 -5 -11 -9q-1 0 -3.5 -1.5t-4 -3t-3 -2.5t-8.5 -6t-11 -8q-9 -6 -16 -14q-6 -9 -10 -18q-4 -11 -4 -23v-2h114v28h-74q6 8 14 14q7 6 15 12q11 7 16 10q8 6 14 13
q6 6 10 15q3 9 3 19v1.5v1.5q0 10 -4 19t-11 15q-16 14 -37 14v0h-1q-13 0 -24 -5t-18 -13q-8 -10 -11 -21q-3 -10 -3 -21v-4h30q0 6 1 12q1 7 5 12q5 12 18 12h1h1q9 0 16 -7q6 -7 6 -17v-1v0q0 -7 -3 -13q-2 -5 -7 -9v0zM879 386h-1q-5 0 -11 3q-4 2 -8 7q-4 4 -5 10
q-2 6 -2 12v0h-30v-2q0 -11 3 -22q4 -11 12 -19q8 -7 18 -11q12 -4 23 -4h1h1q11 0 21 4q11 3 19 10t12 17q5 10 5 22v0v1q0 12 -7 22q-8 11 -21 13v0q11 3 17 13q5 9 5 19v1v0q0 10 -5 19q-4 8 -11.5 13.5t-17 8.5t-18.5 3h-1q-11 0 -21 -4t-17 -12q-7 -7 -10 -17
q-5 -11 -5 -23h30v2q0 10 6 19q7 8 17 8h1h1q8 0 15 -6t7 -15v0v0q0 -6 -3 -11q-4 -4 -9 -6q-5 -3 -11 -3h-10v-22h12q6 0 11 -3q6 -2 9 -6q4 -6 4 -13v-1v-2q0 -10 -8 -16q-6 -9 -16 -9h-1h-1zM988 293h-247q-10 0 -20 -3l-6 -2v337v0q0 25 -17.5 43t-42.5 18h-260
q-25 0 -43 -18t-18 -43v0v-168l-6 2q-9 3 -18 3h-2h-246q-26 -1 -44 -19t-18 -44v0v-465v-1q0 -25 18 -43t43 -18h928q25 0 43 18t18 43v1v296v1q0 25 -18.5 43.5t-43.5 18.5v0zM334 -81h-273v0q-6 0 -10 4t-4 10v0l1 466v0q0 6 4 10t10 4v0h246h1q5 0 9 -4t4 -10v0v-11
l12 -11v-458v0zM668 -81h-287v705v0q0 6 4 10t10 4v0h260v0q5 0 9 -4t4 -10v0v-705v0zM989 -81h-274v289l12 12v10v0q0 6 4 10t10 4v0h247v0q6 0 10 -4t4 -10h-1l2 -296v-1q0 -5 -4 -9.5t-10 -4.5v0z" />
    <glyph glyph-name="logo-a" unicode="&#xe624;" horiz-adv-x="1353" 
d="M653 896h-187l70 -116l-536 -908h179v33h-113l493 835l520 -868h274v33h-108z" />
    <glyph glyph-name="share" unicode="&#xe62d;" 
d="M100 416q38 52 108 103t132 71q34 16 84.5 31.5t87.5 20.5l158 17l-118 137v47l64 53l368 -311v-32l-53 -53l-315 -264q-4 1 -11.5 3t-24.5 9.5t-27 17.5t-10.5 27.5t15.5 37.5q50 64 106 122q13 12 -18 18q-62 13 -167 -4q-45 -8 -76 -20q-39 -15 -77 -34.5t-76 -46
t-65.5 -60.5t-36.5 -70l-27 -100l-37 -48l-43 27v52q-1 19 -1 37q0 48 17.5 109.5t42.5 101.5v1zM995 -128h-966v103h858v214h108v-317z" />
    <glyph glyph-name="checkbox-empty" unicode="&#xe632;" 
d="M-391 207q12 -12 28 -14q24 -3 41 14l286 286q14 14 14 34t-14 34t-33.5 14t-34.5 -14l-252 -253l-95 95q-14 14 -34 14t-34 -14t-14 -33.5t14 -34.5zM896 832h-768q-27 0 -45.5 -18.5t-18.5 -45.5v-768q0 -27 18.5 -45.5t45.5 -18.5h768q27 0 45.5 18.5t18.5 45.5v768
q0 27 -18.5 45.5t-45.5 18.5zM896 0h-768v768h768v-768z" />
    <glyph glyph-name="arrow" unicode="&#xe630;" horiz-adv-x="1042" 
d="M518 895l524 -521l-59 -59l-524 522zM583 837l-524 -522l-59 59l524 521zM563 794v-922h-84v922h84z" />
    <glyph glyph-name="fuzhilianjie" unicode="&#xe655;" 
d="M512 887q-102 0 -195 -39.5t-160 -107t-107 -160.5t-40 -195t40 -195t107 -160t160 -107t195 -40t195 40t160 107t107 160t40 195t-40 195t-107 160.5t-160 107t-195 39.5zM446 136q-38 -39 -91.5 -39t-92 38.5t-38.5 92t38 91.5l130 130q38 38 92 38t92 -38l4 -4
q4 -4 7 -9v-1q6 -11 2.5 -23.5t-15.5 -18.5q-14 -8 -29 0q-1 -1 -13 12q-20 20 -48 20t-48 -20l-130 -130q-20 -20 -20 -48t20 -47.5t48 -19.5t48 19l78 78q43 -21 86 -1zM762 451l-130 -130q-38 -38 -92 -38t-92 38q-3 3 -4 5q-4 3 -7 8v1q-6 11 -2.5 23.5t15.5 18.5
q14 8 29 0l1.5 -1t4 -3t4 -3.5t3.5 -4.5q20 -19 48 -19.5t48 19.5l130 130q20 20 20 48t-20 48t-48 20t-48 -20l-78 -78q-43 21 -86 1l121 121q38 38 92 38t92 -38q37 -38 36.5 -92t-37.5 -92z" />
    <glyph glyph-name="triangle2-copy" unicode="&#xe7c0;" 
d="M736 256h-448l226 256z" />
  </font>
</defs>
</svg>
